<svg width="24" height="24" viewBox="0 0 24 24" fill="none" xmlns="http://www.w3.org/2000/svg">
<path d="M15.4777 11.6084C15.4777 10.9774 14.965 10.464 14.3347 10.464H12.8108C12.1799 10.464 11.6665 10.9774 11.6665 11.6084C11.6665 12.2386 12.1798 12.7514 12.8108 12.7514H14.3347C14.965 12.7514 15.4777 12.2386 15.4777 11.6084ZM12.3697 11.6084C12.3697 11.3651 12.5676 11.1671 12.8109 11.1671H14.3348C14.5773 11.1671 14.7746 11.3651 14.7746 11.6084C14.7746 11.8509 14.5773 12.0482 14.3348 12.0482H12.8109C12.5676 12.0482 12.3697 11.8509 12.3697 11.6084Z" fill="white"/>
<path d="M22.9473 11.8528V10.8854C23.3468 10.8346 23.657 10.4928 23.657 10.079V9.07603C23.657 8.62744 23.2927 8.26247 22.8448 8.26247H19.826C19.6642 7.65497 19.4801 7.13484 19.2761 6.70861C19.6135 6.60225 19.8961 6.37753 20.0768 6.06975C20.2699 5.74073 20.3232 5.35711 20.227 4.99031C20.1315 4.62286 19.8979 4.31419 19.5694 4.12116C19.3191 3.97406 19.037 3.90811 18.7544 3.92709C18.3496 3.14573 17.551 2.5957 16.6215 2.46441C16.1512 1.56478 15.147 0.973594 14.055 0.973594C13.7517 0.973594 13.4567 1.01648 13.1748 1.10128C12.6437 0.415734 11.7809 0 10.8572 0C9.93306 0 9.0707 0.415734 8.54073 1.10114C8.25882 1.01639 7.96398 0.973547 7.66079 0.973547C6.55065 0.973547 5.56609 1.55217 5.09378 2.46441C4.16429 2.5958 3.36596 3.14592 2.96129 3.92728C2.29328 3.88308 1.66375 4.31822 1.48745 4.99027C1.32789 5.60405 1.59667 6.23095 2.10737 6.55402C1.49486 7.7925 1.06431 9.84783 0.885105 12.4154C0.871605 12.6091 1.01767 12.777 1.21136 12.7906C1.2197 12.7912 1.22795 12.7915 1.2362 12.7915C1.4192 12.7915 1.57361 12.6497 1.58654 12.4643C1.76101 9.96394 2.18996 7.92459 2.77323 6.79514C5.4917 7.48027 8.17464 7.82391 10.8577 7.82391C13.421 7.82391 15.9845 7.51055 18.5789 6.88519C18.7681 7.25095 18.9416 7.71197 19.0971 8.26242H18.7016C18.253 8.26242 17.8881 8.62739 17.8881 9.07598V10.079C17.8881 10.4923 18.1982 10.8339 18.5979 10.8851V11.8031H17.0285V10.2156C17.0285 9.49748 16.4443 8.91323 15.7262 8.91323H11.4197C10.7008 8.91323 10.116 9.49748 10.116 10.2156V19.4174H1.68789C1.5287 17.6331 1.46631 15.8566 1.5069 14.1786C1.51164 13.9845 1.35807 13.8233 1.16396 13.8186C0.970418 13.814 0.808746 13.9675 0.804012 14.1616C0.760371 15.9658 0.833731 17.8815 1.01701 19.7993C1.01734 19.8029 1.01767 19.8065 1.01809 19.81C1.07692 20.4244 1.14686 21.0389 1.22804 21.65C0.617355 21.682 0.130371 22.1895 0.130371 22.8088C0.130371 23.4486 0.650309 23.9692 1.2894 23.9692H11.1175C11.2073 23.9892 11.2987 24 11.3902 24H22.5957C23.2983 24 23.8699 23.4284 23.8699 22.7257V21.8566V13.0773C23.8699 12.4967 23.4794 12.0059 22.9473 11.8528V11.8528ZM5.35332 3.14344C5.48561 3.13392 5.60129 3.05077 5.65243 2.92842C5.96546 2.17973 6.77256 1.67667 7.66079 1.67667C7.97035 1.67667 8.26745 1.73409 8.54392 1.8473C8.70381 1.91278 8.88756 1.85241 8.97742 1.70484C9.35378 1.08698 10.0741 0.703125 10.8572 0.703125C11.64 0.703125 12.3609 1.08713 12.7386 1.70527C12.8286 1.85255 13.0121 1.91269 13.1718 1.8473C13.4483 1.73405 13.7454 1.67667 14.0549 1.67667C14.9432 1.67667 15.7502 2.17969 16.0633 2.92842C16.1144 3.05077 16.2301 3.13392 16.3624 3.14344C17.065 3.19406 17.6831 3.55172 18.0326 4.08511C13.2099 5.26697 8.50581 5.26697 3.68307 4.08511C4.03262 3.55172 4.65076 3.19406 5.35332 3.14344ZM19.0296 6.04809C13.5309 7.47759 8.18486 7.47764 2.68665 6.04823C2.30059 5.94722 2.0679 5.55197 2.1677 5.16788C2.25292 4.84303 2.54706 4.62703 2.86782 4.62703C2.92764 4.62703 2.98839 4.63453 3.04886 4.65028H3.04881C5.67648 5.33381 8.2667 5.67553 10.8579 5.67544C13.4484 5.67539 16.0399 5.33363 18.6669 4.65028C18.8526 4.602 19.0465 4.62937 19.2132 4.7273C19.3799 4.82522 19.4982 4.98145 19.5467 5.16788C19.5953 5.35327 19.5682 5.54709 19.4704 5.71369C19.3724 5.88061 19.2157 5.99944 19.0296 6.04809V6.04809ZM18.5912 10.079V9.07603C18.5912 9.01617 18.6418 8.96559 18.7016 8.96559H19.5519C19.5523 8.96559 19.5526 8.96569 19.553 8.96569C19.5535 8.96569 19.554 8.96559 19.5545 8.96559H22.8447C22.9038 8.96559 22.9538 9.01617 22.9538 9.07603V10.079C22.9538 10.1389 22.9038 10.1895 22.8447 10.1895H22.5957H18.9493H18.7016C18.6417 10.1895 18.5912 10.1389 18.5912 10.079ZM22.2442 10.8926V11.8031H19.3009V10.8926H22.2442ZM0.833449 22.8088C0.833449 22.5567 1.03796 22.3515 1.28936 22.3515H1.63084C1.73265 22.3515 1.82945 22.3074 1.89625 22.2305C1.963 22.1536 1.99318 22.0516 1.97893 21.9508C1.8932 21.3436 1.81909 20.7323 1.75581 20.1205H10.116V21.8567V22.7258C10.116 22.9173 10.1598 23.1007 10.2378 23.2661H1.28936C1.03796 23.2661 0.833449 23.061 0.833449 22.8088V22.8088ZM22.5957 23.2969H11.3902C11.3419 23.2969 11.2954 23.2907 11.247 23.2778C10.9951 23.2111 10.8191 22.9842 10.8191 22.7258V22.2083H16.2377C16.4319 22.2083 16.5893 22.0508 16.5893 21.8567C16.5893 21.6625 16.4319 21.5051 16.2377 21.5051H10.8191V10.2156C10.8191 9.88519 11.0885 9.61636 11.4197 9.61636H15.7262C16.0566 9.61636 16.3254 9.88519 16.3254 10.2156V12.1547C16.3254 12.3488 16.4828 12.5062 16.677 12.5062H18.9494H22.5958C22.9107 12.5062 23.1669 12.7624 23.1669 13.0773V21.5051H17.8728C17.6786 21.5051 17.5212 21.6625 17.5212 21.8567C17.5212 22.0508 17.6786 22.2083 17.8728 22.2083H23.1669V22.7258C23.1668 23.0407 22.9106 23.2969 22.5957 23.2969Z" fill="white"/>
<path d="M20.5429 15.6302C20.4616 15.4317 20.3648 15.2312 20.1567 15.152C19.9554 15.0752 19.7863 15.1578 19.6503 15.2241C19.4347 15.3292 19.074 15.5052 18.1816 15.3264C18.0637 15.3028 17.9441 15.2917 17.8242 15.2904C17.3324 14.3715 16.3175 13.8349 15.3694 14.0248C15.3693 14.0248 15.3693 14.0248 15.3692 14.0248C14.4759 14.2043 14.1149 14.0285 13.8991 13.9235C13.7632 13.8573 13.594 13.775 13.3928 13.8517C13.1848 13.9311 13.088 14.1315 13.0065 14.3304C12.7415 14.9798 12.8979 15.8913 13.4246 16.7687C13.8766 17.5216 14.6805 18.3551 15.6341 18.5548C15.6939 18.6892 15.7673 18.8206 15.8549 18.9479C15.6409 19.285 15.4527 19.6802 15.3001 20.1622C15.2415 20.3473 15.344 20.5448 15.5291 20.6035C15.5644 20.6147 15.6002 20.62 15.6354 20.62C15.7846 20.62 15.923 20.5243 15.9704 20.3745C16.0793 20.0307 16.2066 19.7403 16.3506 19.4864C16.6955 19.763 17.0852 19.9037 17.4994 19.9037C17.8814 19.9037 18.2842 19.7846 18.6912 19.5439C19.9497 18.7996 21.0564 16.888 20.5429 15.6302V15.6302ZM15.6787 15.7024C15.5273 15.5808 15.306 15.6049 15.1844 15.7562C15.0628 15.9076 15.0869 16.1289 15.2383 16.2505C15.3962 16.3774 15.5563 16.4989 15.7119 16.6168C15.5175 16.9853 15.4294 17.3734 15.4451 17.757C14.9304 17.53 14.4084 17.0413 14.0274 16.4068C13.6202 15.7285 13.4785 15.0347 13.6572 14.5965C13.6583 14.5939 13.6594 14.5914 13.6604 14.5889C13.9513 14.7262 14.4692 14.9226 15.5074 14.7142C16.0729 14.6009 16.6994 14.8976 17.075 15.4159C17.0381 15.4291 17.0026 15.4447 16.9679 15.4613C16.6566 15.5909 16.3658 15.7896 16.1221 16.0455C15.975 15.9339 15.8242 15.8193 15.6787 15.7024V15.7024ZM16.7535 18.9078C17.0961 18.5016 17.5002 18.1868 17.9541 17.8336C18.0714 17.7424 18.1908 17.6495 18.3118 17.5529C18.4635 17.4317 18.4884 17.2105 18.3672 17.0588C18.2461 16.907 18.025 16.8822 17.8731 17.0033C17.7544 17.0981 17.6373 17.1892 17.5223 17.2786C17.0965 17.61 16.6819 17.9328 16.3121 18.3457C15.9738 17.6814 16.2398 17.093 16.3882 16.8481C16.7087 16.3189 17.2612 15.9915 17.7956 15.9915C17.8789 15.9915 17.9617 15.9994 18.0431 16.0158C18.0432 16.0158 18.0434 16.0159 18.0435 16.0159C19.0807 16.2237 19.5984 16.0269 19.8892 15.8895C19.8902 15.8918 19.8911 15.8941 19.8921 15.8964C20.2309 16.7265 19.4297 18.2903 18.3332 18.9387C17.7271 19.2972 17.1971 19.2863 16.7535 18.9078V18.9078Z" fill="white"/>
</svg>
