<svg width="24" height="24" viewBox="0 0 24 24" fill="none" xmlns="http://www.w3.org/2000/svg">
<path d="M12 6C12 5.44772 12.4477 5 13 5H21C21.5523 5 22 5.44772 22 6C22 6.55229 21.5523 7 21 7L13 7C12.4477 7 12 6.55228 12 6Z" fill="#487D70"/>
<path d="M2 11C2 10.4477 2.44772 10 3 10H21C21.5523 10 22 10.4477 22 11C22 11.5523 21.5523 12 21 12H3C2.44772 12 2 11.5523 2 11Z" fill="#487D70"/>
<path d="M3 15C2.44772 15 2 15.4477 2 16C2 16.5523 2.44772 17 3 17H11C11.5523 17 12 16.5523 12 16C12 15.4477 11.5523 15 11 15H3Z" fill="#487D70"/>
</svg>
