<svg width="24" height="24" viewBox="0 0 24 24" fill="none" xmlns="http://www.w3.org/2000/svg">
<path d="M20.4284 17.7582C20.1836 17.6429 19.8918 17.7482 19.7767 17.9929C19.5581 18.4576 19.0868 18.7578 18.5759 18.7578C18.0649 18.7578 17.5936 18.4576 17.3753 17.993C17.2945 17.8212 17.1219 17.7116 16.9321 17.7116H16.932C16.7423 17.7116 16.5696 17.8212 16.4888 17.9929C16.2702 18.4576 15.7989 18.7578 15.288 18.7578C14.777 18.7578 14.3057 18.4576 14.0873 17.993C14.0066 17.8212 13.8339 17.7116 13.6441 17.7116C13.4543 17.7116 13.2816 17.8212 13.2009 17.9929C12.9824 18.4576 12.5111 18.7578 12.0002 18.7578C11.4892 18.7578 11.0179 18.4576 10.7995 17.993C10.7188 17.8213 10.5462 17.7116 10.3564 17.7116C10.3563 17.7116 10.3563 17.7116 10.3563 17.7116C10.1665 17.7116 9.99382 17.8212 9.91306 17.9929C9.69453 18.4576 9.2232 18.7578 8.7123 18.7578C8.20132 18.7578 7.73003 18.4576 7.51169 17.993C7.43097 17.8213 7.25833 17.7116 7.06853 17.7116C7.06848 17.7116 7.06844 17.7116 7.06844 17.7116C6.87869 17.7116 6.706 17.8211 6.62523 17.9929C6.40665 18.4575 5.93528 18.7578 5.42438 18.7578C4.91335 18.7578 4.44207 18.4576 4.22368 17.993C4.10869 17.7483 3.81685 17.6429 3.57206 17.7581C3.32728 17.8731 3.22209 18.1649 3.33717 18.4097C3.71625 19.2162 4.53558 19.7374 5.42448 19.7374C6.04984 19.7374 6.64084 19.4793 7.06839 19.0453C7.4958 19.4793 8.08685 19.7374 8.7124 19.7374C9.33776 19.7374 9.92881 19.4792 10.3564 19.0453C10.7838 19.4793 11.3749 19.7374 12.0005 19.7374C12.6258 19.7374 13.2169 19.4793 13.6444 19.0453C14.0718 19.4793 14.6629 19.7374 15.2884 19.7374C15.9138 19.7374 16.5048 19.4793 16.9323 19.0453C17.3598 19.4793 17.9508 19.7374 18.5764 19.7374C19.465 19.7374 20.2843 19.2162 20.6636 18.4098C20.7782 18.1651 20.6732 17.8733 20.4284 17.7582Z" fill="white"/>
<path d="M17.1406 20.3987C16.8959 20.2835 16.6041 20.3887 16.489 20.6335C16.2704 21.0981 15.7991 21.3984 15.2882 21.3984C14.7772 21.3984 14.3059 21.0982 14.0875 20.6336C14.0067 20.4618 13.8341 20.3521 13.6443 20.3521C13.4545 20.3521 13.2818 20.4617 13.201 20.6335C12.9826 21.0981 12.5113 21.3984 12.0004 21.3984C11.4894 21.3984 11.018 21.0982 10.7997 20.6336C10.719 20.4619 10.5463 20.3522 10.3565 20.3521C10.3565 20.3521 10.3564 20.3521 10.3564 20.3521C10.1667 20.3521 9.99394 20.4617 9.91322 20.6335C9.69464 21.0981 9.22331 21.3984 8.71242 21.3984C8.20143 21.3984 7.73015 21.0982 7.5118 20.6336C7.39682 20.3888 7.10511 20.2836 6.86019 20.3986C6.61541 20.5137 6.51017 20.8055 6.62525 21.0502C7.00428 21.8568 7.82357 22.378 8.71246 22.378C9.33783 22.378 9.92888 22.1198 10.3564 21.6859C10.7839 22.1199 11.3749 22.378 12.0005 22.378C12.6259 22.378 13.2169 22.1198 13.6444 21.6859C14.0719 22.1199 14.6629 22.378 15.2885 22.378C16.1771 22.378 16.9964 21.8568 17.3757 21.0504C17.4906 20.8056 17.3855 20.5138 17.1406 20.3987Z" fill="white"/>
<path d="M23.7178 15.1567C23.4729 15.0419 23.1813 15.1474 23.0665 15.3923C22.8485 15.8572 22.3765 16.1576 21.8638 16.1576C21.3528 16.1576 20.8815 15.8574 20.6631 15.3928C20.5824 15.2211 20.4097 15.1114 20.2199 15.1114C20.2199 15.1114 20.2199 15.1114 20.2199 15.1114C20.0301 15.1114 19.8574 15.221 19.7767 15.3927C19.6404 15.6825 19.4057 15.9082 19.1245 16.0372C18.8139 12.3787 15.7374 9.49646 11.9999 9.49646C8.26241 9.49646 5.1859 12.3787 4.87526 16.0372C4.5941 15.9082 4.35954 15.6825 4.22341 15.3928C4.14269 15.221 3.97 15.1114 3.78021 15.1114C3.59041 15.1114 3.41772 15.221 3.33696 15.3927C3.11847 15.8574 2.64714 16.1576 2.1363 16.1576C1.62348 16.1576 1.15131 15.8572 0.933387 15.3923C0.81859 15.1474 0.527026 15.0419 0.28201 15.1567C0.0370875 15.2716 -0.0683815 15.5632 0.0464156 15.8081C0.424932 16.6155 1.24525 17.1373 2.1363 17.1373C2.76161 17.1373 3.35271 16.8791 3.78011 16.4451C4.20761 16.8792 4.79862 17.1373 5.42416 17.1373C6.04953 17.1373 6.64053 16.8791 7.06807 16.4451C7.49553 16.8792 8.08653 17.1373 8.71208 17.1373C9.33744 17.1373 9.92849 16.8791 10.356 16.4451C10.7835 16.8792 11.3745 17.1373 12.0001 17.1373C12.6255 17.1373 13.2165 16.8791 13.644 16.4451C14.0715 16.8792 14.6625 17.1373 15.2881 17.1373C15.9135 17.1373 16.5045 16.8791 16.932 16.4451C17.3595 16.8792 17.9505 17.1373 18.5761 17.1373C19.2014 17.1373 19.7925 16.8791 20.22 16.4451C20.6475 16.8792 21.2385 17.1373 21.8641 17.1373C22.755 17.1373 23.5752 16.6156 23.9537 15.8081C24.0683 15.5631 23.9628 15.2715 23.7178 15.1567ZM17.3752 15.3928C17.2944 15.221 17.1218 15.1114 16.932 15.1114H16.9319C16.7421 15.1114 16.5695 15.221 16.4887 15.3927C16.2702 15.8574 15.7988 16.1576 15.288 16.1576C14.7769 16.1576 14.3056 15.8574 14.0873 15.3928C14.0065 15.221 13.8338 15.1114 13.644 15.1114C13.644 15.1114 13.644 15.1114 13.644 15.1114C13.4542 15.1114 13.2816 15.221 13.2008 15.3927C12.9823 15.8574 12.511 16.1576 12.0001 16.1576C11.4891 16.1576 11.0178 15.8574 10.7994 15.3928C10.7187 15.2211 10.5461 15.1114 10.3563 15.1114C10.3562 15.1114 10.3562 15.1114 10.3562 15.1114C10.1664 15.1114 9.99374 15.221 9.91297 15.3927C9.69444 15.8574 9.22311 16.1576 8.71222 16.1576C8.20119 16.1576 7.72995 15.8574 7.51161 15.3928C7.43089 15.2211 7.25825 15.1114 7.06845 15.1114C7.0684 15.1114 7.0684 15.1114 7.0684 15.1114C6.87861 15.1114 6.70596 15.2209 6.6252 15.3927C6.47023 15.7221 6.1879 15.9683 5.85476 16.084C6.14032 12.9443 8.78717 10.476 12.0002 10.476C15.2131 10.476 17.86 12.9441 18.1456 16.0839C17.8121 15.9682 17.5299 15.7222 17.3752 15.3928Z" fill="white"/>
<path d="M7.38165 9.68534L2.92429 5.27129C2.73215 5.08098 2.42198 5.08243 2.23162 5.27467C2.0413 5.46685 2.04276 5.77698 2.23499 5.96734L6.69235 10.3814C6.78779 10.476 6.91243 10.5232 7.03698 10.5232C7.16312 10.5232 7.28926 10.4748 7.38503 10.378C7.57534 10.1858 7.57389 9.8757 7.38165 9.68534Z" fill="white"/>
<path d="M12 1.62201C11.7296 1.62201 11.5103 1.84134 11.5103 2.11181V8.38118C11.5103 8.65165 11.7296 8.87097 12 8.87097C12.2706 8.87097 12.4898 8.65165 12.4898 8.38118V2.11181C12.4898 1.84134 12.2706 1.62201 12 1.62201Z" fill="white"/>
<path d="M9.9815 8.57915L8.79129 5.53394C8.69285 5.28204 8.40898 5.15749 8.15684 5.25607C7.90488 5.35451 7.78048 5.63852 7.87896 5.89053L9.06917 8.93573C9.14473 9.12909 9.32965 9.24736 9.52545 9.24736C9.5847 9.24736 9.64503 9.23648 9.70362 9.21361C9.95557 9.11517 10.08 8.83115 9.9815 8.57915Z" fill="white"/>
<path d="M8.18883 3.99076L7.72692 2.72574C7.63415 2.47158 7.35295 2.34094 7.09884 2.43361C6.84468 2.52638 6.7139 2.80758 6.80672 3.06169L7.26862 4.32671C7.34123 4.52537 7.52892 4.64865 7.7288 4.64865C7.78458 4.64865 7.8413 4.639 7.8967 4.61884C8.15086 4.52603 8.28159 4.24482 8.18883 3.99076Z" fill="white"/>
<path d="M16.1631 5.39649C15.9155 5.28736 15.6265 5.39953 15.5173 5.64708L14.2073 8.61855C14.0982 8.86609 14.2103 9.15517 14.4579 9.26435C14.5221 9.29266 14.5892 9.30611 14.6552 9.30611C14.8434 9.30611 15.0229 9.19703 15.1037 9.01375L16.4137 6.04228C16.5228 5.79474 16.4106 5.50566 16.1631 5.39649Z" fill="white"/>
<path d="M17.3512 2.60258C17.1017 2.49796 16.8147 2.61533 16.71 2.8648L16.1784 4.13212C16.0738 4.38159 16.1912 4.66861 16.4406 4.77328C16.5025 4.79925 16.5667 4.81153 16.6298 4.81153C16.8212 4.81153 17.003 4.69856 17.0817 4.51106L17.6133 3.24374C17.718 2.99427 17.6006 2.70725 17.3512 2.60258Z" fill="white"/>
<path d="M23.0584 10.6113C22.9572 10.3604 22.6718 10.2391 22.421 10.3401L18.821 11.7909C18.5701 11.8921 18.4487 12.1774 18.5498 12.4283C18.6267 12.6193 18.8103 12.7352 19.0042 12.7352C19.0652 12.7352 19.1271 12.7237 19.1872 12.6995L22.7872 11.2486C23.038 11.1476 23.1594 10.8622 23.0584 10.6113Z" fill="white"/>
<path d="M5.14819 11.8297L1.76156 10.5095C1.50965 10.4114 1.22563 10.5358 1.12733 10.7879C1.02908 11.0399 1.15372 11.3239 1.40577 11.4222L4.79236 12.7424C4.85082 12.7652 4.91096 12.776 4.97011 12.776C5.1661 12.776 5.35112 12.6576 5.42663 12.464C5.52484 12.212 5.40024 11.928 5.14819 11.8297Z" fill="white"/>
<path d="M21.763 5.22438C21.5721 5.0328 21.262 5.03224 21.0703 5.22307L16.6016 9.67467C16.41 9.86564 16.4094 10.1757 16.6003 10.3674C16.6961 10.4634 16.8217 10.5115 16.9474 10.5115C17.0724 10.5115 17.1974 10.4639 17.2931 10.3687L21.7617 5.91711C21.9533 5.72614 21.9539 5.41606 21.763 5.22438Z" fill="white"/>
</svg>
