<svg width="28" height="32" viewBox="0 0 28 32" fill="none" xmlns="http://www.w3.org/2000/svg">
<g clip-path="url(#clip0)" filter="url(#filter0_d)">
<path d="M11.3635 20.654C9.04866 19.9342 7.49333 17.8203 7.49333 15.3937C7.49333 14.2076 7.86465 13.0776 8.56719 12.1258C8.58321 12.1041 8.59769 12.0803 8.60976 12.0562C8.72584 11.8241 8.63157 11.5421 8.39941 11.4261C8.18929 11.3208 7.93796 11.3884 7.80609 11.5742C6.98663 12.6875 6.55347 14.0081 6.55347 15.3937C6.55347 16.7969 6.99654 18.131 7.83476 19.2518C8.64496 20.3351 9.79904 21.1518 11.0845 21.5515C11.1309 21.566 11.1779 21.5728 11.2241 21.5728C11.4245 21.5728 11.6102 21.4436 11.6728 21.2422C11.7498 20.9944 11.6114 20.731 11.3635 20.654V20.654Z" fill="white"/>
<path d="M23.4101 10.9819C23.4101 10.0874 23.1313 9.2351 22.6038 8.51634L19.6289 4.1001C19.5415 3.97044 19.3955 3.89271 19.2391 3.89271C19.0827 3.89271 18.9367 3.97044 18.8493 4.1001L17.5958 5.96099L13.7198 0.207392C13.6325 0.077731 13.4864 0 13.3301 0C13.1738 0 13.0277 0.077731 12.9403 0.207392L6.28687 10.0842C5.17674 11.5928 4.59009 13.3822 4.59009 15.26C4.59009 20.0792 8.51085 24 13.3301 24C18.1493 24 22.0701 20.0792 22.0701 15.26C22.0701 14.8753 22.0444 14.4899 21.9944 14.1105C22.8619 13.3456 23.4101 12.2267 23.4101 10.9819V10.9819ZM19.2391 5.20384L21.8241 9.04124C21.8293 9.04923 21.8347 9.05708 21.8404 9.06478C22.2524 9.62276 22.4702 10.2857 22.4702 10.9819C22.4702 12.7635 21.0208 14.2129 19.2391 14.2129C17.4575 14.2129 16.008 12.7635 16.008 10.9819C16.008 10.2857 16.2258 9.62276 16.6378 9.06478C16.6433 9.05741 16.6485 9.04989 16.6535 9.04213L17.9846 7.06619C17.987 7.06258 17.9896 7.059 17.9919 7.05529L19.2391 5.20384ZM21.1301 15.26C21.1301 19.561 17.631 23.0601 13.33 23.0601C9.02903 23.0601 5.52996 19.561 5.52996 15.26C5.52996 13.5802 6.05584 11.9797 7.05083 10.6318C7.05652 10.6242 7.06202 10.6161 7.06733 10.6079L13.3301 1.31109L17.0292 6.80217L15.8744 8.51639C15.3469 9.2351 15.0681 10.0874 15.0681 10.9819C15.0681 13.2818 16.9392 15.1529 19.2391 15.1529C19.9116 15.1529 20.5473 14.9927 21.1104 14.7088C21.1233 14.8921 21.1301 15.0761 21.1301 15.26Z" fill="white"/>
<path d="M17.582 10.8673C17.582 10.6396 17.6284 10.4199 17.7198 10.2142C17.8253 9.97697 17.7185 9.69923 17.4813 9.59382C17.2442 9.4885 16.9665 9.59513 16.861 9.83232C16.7157 10.159 16.6421 10.5072 16.6421 10.8673C16.6421 11.7202 17.0658 12.5131 17.7755 12.9879C17.8558 13.0416 17.9465 13.0673 18.0364 13.0673C18.188 13.0673 18.3368 12.9941 18.4274 12.8587C18.5717 12.6429 18.5139 12.351 18.2982 12.2067C17.8497 11.9066 17.582 11.4059 17.582 10.8673V10.8673Z" fill="white"/>
<path d="M13.1071 21.305C12.992 21.0026 12.5628 20.9164 12.3406 21.1527C12.076 21.4091 12.2184 21.8798 12.5812 21.9456C12.9409 22.0244 13.2544 21.6426 13.1071 21.305Z" fill="white"/>
<path d="M18.9919 13.4163C19.2949 13.6262 19.7289 13.3941 19.7227 13.0258C19.7295 12.6574 19.2947 12.4248 18.9919 12.6348C18.7174 12.8068 18.7164 13.2449 18.9919 13.4163Z" fill="white"/>
</g>
<defs>
<filter id="filter0_d" x="-2" y="0" width="32" height="32" filterUnits="userSpaceOnUse" color-interpolation-filters="sRGB">
<feFlood flood-opacity="0" result="BackgroundImageFix"/>
<feColorMatrix in="SourceAlpha" type="matrix" values="0 0 0 0 0 0 0 0 0 0 0 0 0 0 0 0 0 0 127 0"/>
<feOffset dy="4"/>
<feGaussianBlur stdDeviation="2"/>
<feColorMatrix type="matrix" values="0 0 0 0 0 0 0 0 0 0 0 0 0 0 0 0 0 0 0.25 0"/>
<feBlend mode="normal" in2="BackgroundImageFix" result="effect1_dropShadow"/>
<feBlend mode="normal" in="SourceGraphic" in2="effect1_dropShadow" result="shape"/>
</filter>
<clipPath id="clip0">
<rect width="24" height="24" fill="white" transform="translate(2)"/>
</clipPath>
</defs>
</svg>
